<svg width="289" height="236" viewBox="0 0 289 236" fill="none" xmlns="http://www.w3.org/2000/svg">
<g id="Component 1">
<path id="Ellipse 4" d="M260.797 75.3871C274.26 111.05 227.585 130.363 169.104 183.777C107.675 239.885 42.121 198.684 28.658 163.022C9.21753 101.767 49.4859 49.8835 120.351 54.6317C184.454 30.432 247.334 39.7245 260.797 75.3871Z" fill="#F3F1FF"/>
<path id="Union" fill-rule="evenodd" clip-rule="evenodd" d="M99.584 49C99.584 46.7908 101.375 45 103.584 45H131.584C120.876 45 111.878 51.8397 109.315 61.1002L105.385 74.0385L125.073 74.0385L131.584 54L138.095 74.0385L157.881 74.0385L153.962 61.5121C153.78 60.7975 153.561 60.0968 153.305 59.4118L153.064 58.6425L153.007 58.6603C149.655 50.6632 141.327 45 131.584 45H168.584C170.793 45 172.584 46.7908 172.584 49V115C172.584 116.038 172.188 116.984 171.54 117.695L158.119 74.7984L142.119 86.423L148.205 105.155L148.214 105.148L148.496 106.05L148.63 106.461L148.623 106.457L152.548 119H103.584C101.375 119 99.584 117.209 99.584 115V96C99.584 101.203 101.608 105.89 104.843 109.176C109.013 114.517 115.853 118 123.584 118C130.135 118 136.047 115.499 140.236 111.486L147.549 105.676L131.584 94.077L114.538 106.461L121.049 86.423L105.135 74.8609L100.661 89.5893C99.9652 91.5808 99.584 93.7418 99.584 96V49ZM17.712 162L19.688 156.02H32.688L34.664 162H45.428L32.116 125.34H20.364L7 162H17.712ZM26.188 136.364L30.14 148.22H22.288L26.188 136.364ZM71.4739 162H81.6659V125.34H71.4739V146.088L57.9019 125.34H47.7099V162H57.9019V141.512L71.4739 162ZM107.388 135.168C108.428 135.688 109.242 136.433 109.832 137.404H120.804C120.076 133.556 118.204 130.523 115.188 128.304C112.172 126.085 108.358 124.976 103.748 124.976C100.073 124.976 96.8316 125.773 94.0236 127.368C91.2156 128.928 89.0316 131.129 87.4716 133.972C85.9463 136.78 85.1836 139.987 85.1836 143.592C85.1836 147.232 85.9463 150.473 87.4716 153.316C89.0316 156.124 91.2156 158.325 94.0236 159.92C96.8663 161.48 100.125 162.26 103.8 162.26C106.816 162.26 109.502 161.723 111.86 160.648C114.217 159.539 116.158 158.135 117.684 156.436C119.244 154.737 120.422 152.917 121.22 150.976V141.096H102.188V148.428H112.432C110.906 151.652 108.358 153.264 104.788 153.264C101.772 153.264 99.4663 152.449 97.8716 150.82C96.3116 149.156 95.5316 146.747 95.5316 143.592C95.5316 140.784 96.2596 138.548 97.7156 136.884C99.2063 135.22 101.234 134.388 103.8 134.388C105.186 134.388 106.382 134.648 107.388 135.168ZM134.939 139.484V133.504H148.199V125.34H124.747V162H148.199V153.836H134.939V147.232H146.639V139.484H134.939ZM173.775 154.2H162.387V125.34H152.195V162H173.775V154.2ZM184.81 159.972C187.688 161.567 190.842 162.364 194.274 162.364C197.706 162.364 200.861 161.567 203.738 159.972C206.616 158.343 208.886 156.107 210.55 153.264C212.214 150.387 213.046 147.145 213.046 143.54C213.046 139.935 212.214 136.711 210.55 133.868C208.886 130.991 206.616 128.755 203.738 127.16C200.896 125.565 197.741 124.768 194.274 124.768C190.842 124.768 187.688 125.565 184.81 127.16C181.933 128.755 179.645 130.991 177.946 133.868C176.282 136.711 175.45 139.935 175.45 143.54C175.45 147.145 176.282 150.387 177.946 153.264C179.645 156.107 181.933 158.343 184.81 159.972ZM200.41 150.352C198.92 152.051 196.874 152.9 194.274 152.9C191.64 152.9 189.577 152.068 188.086 150.404C186.596 148.705 185.85 146.417 185.85 143.54C185.85 140.628 186.596 138.34 188.086 136.676C189.577 134.977 191.64 134.128 194.274 134.128C196.874 134.128 198.92 134.977 200.41 136.676C201.936 138.34 202.698 140.628 202.698 143.54C202.698 146.383 201.936 148.653 200.41 150.352ZM240.352 162H250.544V125.34H240.352V146.088L226.78 125.34H216.588V162H226.78V141.512L240.352 162ZM265.502 162V125.34H255.31V162H265.502Z" fill="#3F3D56"/>
</g>
</svg>
